<svg width="380" height="380" viewBox="0 0 380 380" fill="none" xmlns="http://www.w3.org/2000/svg">
<g filter="url(#filter0_b)">
<circle cx="190" cy="190" r="190" fill="black"/>
<circle cx="190" cy="190" r="190" fill="url(#paint0_linear)" fill-opacity="0.2"/>
</g>
<g filter="url(#filter1_d)">
<line x1="206" y1="104" x2="174" y2="104" stroke="#14B9FF" stroke-width="22" stroke-linecap="square"/>
</g>
<g filter="url(#filter2_d)">
<path d="M220 169H160" stroke="#14B9FF" stroke-width="22" stroke-linecap="square" stroke-linejoin="round"/>
</g>
<path d="M118.473 207.864C123.307 231.421 133.242 245.323 147.918 256.228C162.594 267.132 180.785 269.589 197.906 269.26C216.538 268.837 235.832 260.634 247.69 247.831C254.198 240.805 258.713 235.04 263.505 221.896" stroke="white" stroke-width="22" stroke-linecap="round" stroke-linejoin="round"/>
<path d="M116.5 177.5C121.256 177.5 124.5 173.338 124.5 169C124.5 164.662 121.256 160.5 116.5 160.5C111.744 160.5 108.5 164.662 108.5 169C108.5 173.338 111.744 177.5 116.5 177.5Z" fill="white" stroke="white" stroke-width="7"/>
<path d="M135.5 130.5C140.256 130.5 143.5 126.338 143.5 122C143.5 117.662 140.256 113.5 135.5 113.5C130.744 113.5 127.5 117.662 127.5 122C127.5 126.338 130.744 130.5 135.5 130.5Z" fill="white" stroke="white" stroke-width="7"/>
<path d="M245.5 130.5C250.256 130.5 253.5 126.338 253.5 122C253.5 117.662 250.256 113.5 245.5 113.5C240.744 113.5 237.5 117.662 237.5 122C237.5 126.338 240.744 130.5 245.5 130.5Z" fill="white" stroke="white" stroke-width="7"/>
<circle cx="264" cy="169" r="8.5" fill="white" stroke="white" stroke-width="7"/>
<defs>
<filter id="filter0_b" x="-4" y="-4" width="388" height="388" filterUnits="userSpaceOnUse" color-interpolation-filters="sRGB">
<feFlood flood-opacity="0" result="BackgroundImageFix"/>
<feGaussianBlur in="BackgroundImage" stdDeviation="2"/>
<feComposite in2="SourceAlpha" operator="in" result="effect1_backgroundBlur"/>
<feBlend mode="normal" in="SourceGraphic" in2="effect1_backgroundBlur" result="shape"/>
</filter>
<filter id="filter1_d" x="163" y="93" width="54" height="22" filterUnits="userSpaceOnUse" color-interpolation-filters="sRGB">
<feFlood flood-opacity="0" result="BackgroundImageFix"/>
<feColorMatrix in="SourceAlpha" type="matrix" values="0 0 0 0 0 0 0 0 0 0 0 0 0 0 0 0 0 0 127 0"/>
<feOffset/>
<feColorMatrix type="matrix" values="0 0 0 0 0 0 0 0 0 0 0 0 0 0 0 0 0 0 0.25 0"/>
<feBlend mode="normal" in2="BackgroundImageFix" result="effect1_dropShadow"/>
<feBlend mode="normal" in="SourceGraphic" in2="effect1_dropShadow" result="shape"/>
</filter>
<filter id="filter2_d" x="149" y="158" width="82" height="22" filterUnits="userSpaceOnUse" color-interpolation-filters="sRGB">
<feFlood flood-opacity="0" result="BackgroundImageFix"/>
<feColorMatrix in="SourceAlpha" type="matrix" values="0 0 0 0 0 0 0 0 0 0 0 0 0 0 0 0 0 0 127 0"/>
<feOffset/>
<feColorMatrix type="matrix" values="0 0 0 0 0 0 0 0 0 0 0 0 0 0 0 0 0 0 0.25 0"/>
<feBlend mode="normal" in2="BackgroundImageFix" result="effect1_dropShadow"/>
<feBlend mode="normal" in="SourceGraphic" in2="effect1_dropShadow" result="shape"/>
</filter>
<linearGradient id="paint0_linear" x1="303.367" y1="40.85" x2="56.05" y2="342" gradientUnits="userSpaceOnUse">
<stop stop-color="#8E8E8E" stop-opacity="0.76"/>
<stop offset="0.353883" stop-color="#EBEBEB" stop-opacity="0.57"/>
<stop offset="0.708333" stop-color="white" stop-opacity="0"/>
</linearGradient>
</defs>
</svg>
