<svg width="852" height="232" viewBox="0 0 852 232" fill="none" xmlns="http://www.w3.org/2000/svg">
<path d="M150.4 223.12H163.36V99.6H152.96L151.68 107.76H151.2C143.52 101.2 136.48 97.36 126.24 97.36C106.4 97.36 88.64 114.96 88.64 142.8C88.64 171.76 102.56 188.08 124.32 188.08C134.72 188.08 143.84 182.64 151.04 175.6L150.4 191.76V223.12ZM127.04 177.04C111.2 177.04 102.24 164.08 102.24 142.8C102.24 122.64 113.6 108.4 128.32 108.4C135.84 108.4 142.56 111.12 150.4 118V164.72C142.72 172.88 135.36 177.04 127.04 177.04ZM218.598 188.08C230.598 188.08 239.238 181.68 247.398 172.24H247.878L248.998 186H259.718V99.6H246.758V161.52C238.118 172.08 231.558 176.72 222.438 176.72C210.278 176.72 205.318 169.36 205.318 152.88V99.6H192.358V154.48C192.358 176.56 200.518 188.08 218.598 188.08ZM289.888 186H302.848V99.6H289.888V186ZM296.448 81.04C301.568 81.04 305.408 77.52 305.408 71.92C305.408 66.64 301.568 63.12 296.448 63.12C291.008 63.12 287.328 66.64 287.328 71.92C287.328 77.52 291.008 81.04 296.448 81.04Z" fill="white"/>
<path d="M366.456 187.92C359.843 187.92 354.456 186.8 350.296 184.56C346.243 182.32 343.47 179.653 341.976 176.56H341.176V186H326.616V153.2H341.176V160.4C341.176 165.947 342.99 170.267 346.616 173.36C350.35 176.453 356.27 178 364.376 178C372.91 178 379.096 176.24 382.936 172.72C386.776 169.2 388.696 164.507 388.696 158.64C388.696 153.413 387.256 149.413 384.376 146.64C381.496 143.76 376.643 141.467 369.816 139.76L361.656 137.84C356.43 136.667 351.736 135.12 347.576 133.2C343.416 131.28 339.896 128.933 337.016 126.16C334.136 123.387 331.896 120.133 330.296 116.4C328.803 112.667 328.056 108.293 328.056 103.28C328.056 98.6933 328.91 94.5333 330.616 90.8C332.323 86.96 334.723 83.7067 337.816 81.04C341.016 78.2667 344.856 76.1333 349.336 74.64C353.816 73.1467 358.883 72.4 364.536 72.4C370.936 72.4 376.056 73.4667 379.896 75.6C383.736 77.7333 386.403 80.24 387.896 83.12H388.696V74.32H403.256V106.16H388.696V98.96C388.696 93.52 386.83 89.4133 383.096 86.64C379.47 83.76 373.71 82.32 365.816 82.32C358.456 82.32 352.963 83.9733 349.336 87.28C345.816 90.48 344.056 94.5867 344.056 99.6C344.056 104.933 345.656 109.04 348.856 111.92C352.163 114.8 357.55 117.147 365.016 118.96L372.536 120.56C382.883 123.013 390.883 126.907 396.536 132.24C402.19 137.467 405.016 144.667 405.016 153.84C405.016 158.747 404.11 163.28 402.296 167.44C400.59 171.6 398.083 175.227 394.776 178.32C391.576 181.307 387.576 183.653 382.776 185.36C377.976 187.067 372.536 187.92 366.456 187.92ZM460.131 187.92C453.945 187.92 448.451 186.907 443.651 184.88C438.851 182.747 434.798 179.76 431.491 175.92C428.185 172.08 425.625 167.493 423.811 162.16C422.105 156.827 421.251 150.907 421.251 144.4C421.251 137.787 422.158 131.813 423.971 126.48C425.891 121.147 428.505 116.613 431.811 112.88C435.225 109.04 439.225 106.107 443.811 104.08C448.505 101.947 453.625 100.88 459.171 100.88C464.825 100.88 469.891 101.84 474.371 103.76C478.851 105.573 482.638 108.187 485.731 111.6C488.931 115.013 491.385 119.12 493.091 123.92C494.798 128.72 495.651 134.053 495.651 139.92V144.24H440.611V149.36C440.611 157.68 442.691 164.133 446.851 168.72C451.011 173.2 456.611 175.44 463.651 175.44C469.838 175.44 474.798 174.107 478.531 171.44C482.371 168.667 485.198 165.253 487.011 161.2L493.891 165.36C492.931 168.133 491.491 170.853 489.571 173.52C487.758 176.187 485.465 178.587 482.691 180.72C479.918 182.853 476.665 184.613 472.931 186C469.198 187.28 464.931 187.92 460.131 187.92ZM440.611 135.76H477.091V134C477.091 126.32 475.598 120.4 472.611 116.24C469.731 111.973 465.251 109.84 459.171 109.84C453.198 109.84 448.611 111.92 445.411 116.08C442.211 120.133 440.611 126 440.611 133.68V135.76ZM535.114 187.92C526.794 187.92 520.5 185.893 516.234 181.84C512.074 177.68 509.994 172.027 509.994 164.88C509.994 156.773 512.874 150.64 518.634 146.48C524.394 142.32 533.78 140.24 546.794 140.24H558.314V129.36C558.314 122.853 556.874 117.893 553.994 114.48C551.114 111.067 546.58 109.36 540.394 109.36C535.167 109.36 531.22 110.107 528.554 111.6V112.24C529.727 112.773 530.794 113.733 531.754 115.12C532.82 116.4 533.354 118.213 533.354 120.56C533.354 123.547 532.447 125.947 530.634 127.76C528.927 129.573 526.42 130.48 523.114 130.48C520.34 130.48 517.994 129.573 516.074 127.76C514.26 125.84 513.354 123.28 513.354 120.08C513.354 117.627 514.047 115.28 515.434 113.04C516.927 110.693 519.06 108.613 521.834 106.8C524.607 104.987 527.967 103.547 531.914 102.48C535.967 101.413 540.607 100.88 545.834 100.88C555.86 100.88 563.434 103.227 568.554 107.92C573.674 112.613 576.234 119.173 576.234 127.6V177.52H587.114V184.72C585.62 185.573 583.7 186.32 581.354 186.96C579.007 187.6 576.5 187.92 573.834 187.92C568.927 187.92 565.3 186.693 562.954 184.24C560.714 181.68 559.594 178.427 559.594 174.48V173.68H558.794C558.047 175.493 557.087 177.253 555.914 178.96C554.74 180.56 553.194 182.053 551.274 183.44C549.46 184.827 547.22 185.893 544.554 186.64C541.887 187.493 538.74 187.92 535.114 187.92ZM542.154 176.72C546.847 176.72 550.687 175.6 553.674 173.36C556.767 171.12 558.314 167.44 558.314 162.32V148.08H548.714C541.14 148.08 535.86 149.307 532.874 151.76C529.887 154.213 528.394 157.733 528.394 162.32V165.36C528.394 169.2 529.62 172.08 532.074 174C534.527 175.813 537.887 176.72 542.154 176.72ZM599.071 177.36H609.951V115.6L599.071 113.52V106.48L627.391 100.88V115.76H628.191C628.938 113.84 629.845 112.027 630.911 110.32C632.085 108.507 633.471 106.907 635.071 105.52C636.778 104.133 638.698 103.013 640.831 102.16C643.071 101.307 645.578 100.88 648.351 100.88C653.258 100.88 657.151 102.107 660.031 104.56C663.018 107.013 664.511 110.533 664.511 115.12C664.511 118.747 663.551 121.627 661.631 123.76C659.818 125.787 657.311 126.8 654.111 126.8C650.805 126.8 648.191 125.947 646.271 124.24C644.458 122.427 643.551 120.187 643.551 117.52C643.551 115.707 643.925 114.213 644.671 113.04C645.418 111.76 646.325 111.013 647.391 110.8V110.32C647.071 110.213 646.698 110.16 646.271 110.16C645.845 110.053 645.205 110 644.351 110C642.325 110 640.298 110.533 638.271 111.6C636.351 112.667 634.591 114.053 632.991 115.76C631.498 117.36 630.271 119.227 629.311 121.36C628.351 123.387 627.871 125.413 627.871 127.44V177.36H641.951V186H599.071V177.36ZM712.01 187.92C705.717 187.92 700.117 186.853 695.21 184.72C690.41 182.587 686.357 179.6 683.05 175.76C679.743 171.92 677.237 167.333 675.53 162C673.823 156.667 672.97 150.8 672.97 144.4C672.97 137.573 673.983 131.493 676.01 126.16C678.037 120.72 680.863 116.133 684.49 112.4C688.117 108.667 692.383 105.84 697.29 103.92C702.303 101.893 707.743 100.88 713.61 100.88C722.783 100.88 729.93 102.8 735.05 106.64C740.277 110.48 742.89 115.387 742.89 121.36C742.89 125.093 741.877 128.027 739.85 130.16C737.823 132.187 735.103 133.2 731.69 133.2C728.17 133.2 725.503 132.24 723.69 130.32C721.877 128.293 720.97 125.787 720.97 122.8C720.97 120.347 721.61 118.213 722.89 116.4C724.17 114.587 725.823 113.253 727.85 112.4V111.6C726.57 111.067 724.97 110.587 723.05 110.16C721.13 109.627 718.73 109.36 715.85 109.36C712.33 109.36 709.13 110 706.25 111.28C703.37 112.56 700.917 114.373 698.89 116.72C696.863 118.96 695.263 121.68 694.09 124.88C693.023 128.08 692.49 131.653 692.49 135.6V149.52C692.49 157.52 694.463 163.867 698.41 168.56C702.357 173.147 707.743 175.44 714.57 175.44C720.97 175.44 725.93 174.053 729.45 171.28C733.077 168.507 735.85 165.093 737.77 161.04L744.65 165.2C743.69 167.973 742.303 170.693 740.49 173.36C738.677 176.027 736.437 178.48 733.77 180.72C731.103 182.853 727.957 184.613 724.33 186C720.703 187.28 716.597 187.92 712.01 187.92ZM755.116 177.36H765.996V79.12L755.116 77.04V70L783.916 64.4V115.76H784.716C785.356 113.947 786.316 112.133 787.596 110.32C788.983 108.507 790.636 106.907 792.556 105.52C794.476 104.133 796.716 103.013 799.276 102.16C801.836 101.307 804.716 100.88 807.916 100.88C818.05 100.88 825.25 103.493 829.516 108.72C833.783 113.84 835.916 121.573 835.916 131.92V177.36H846.796V186H807.436V177.36H817.996V132.88C817.996 125.947 816.663 120.88 813.996 117.68C811.33 114.48 807.116 112.88 801.356 112.88C799.223 112.88 797.09 113.2 794.956 113.84C792.93 114.373 791.063 115.28 789.356 116.56C787.756 117.733 786.423 119.227 785.356 121.04C784.396 122.853 783.916 125.04 783.916 127.6V177.36H794.476V186H755.116V177.36Z" fill="#14B9FF"/>
<path d="M53.0459 186.02C56.2615 185.582 67.2952 185.222 73.8929 181.206L69.5002 173C65.0328 176.135 60.3826 177.341 50.3153 178.467" stroke="white" stroke-width="1.98"/>
<path d="M11.0924 109C5.52094 123.265 3.18399 149.12 11.0923 162.494C19.0006 175.867 31.5209 183 49.1638 183C61.2352 183 66.3571 180.325 71 177.651" stroke="white" stroke-width="11"/>
<path d="M46 183C28.6724 183 12.0405 170.935 7.40358 155.652C1.01969 138.761 9.19325 112.217 10.7892 109" stroke="white" stroke-width="10"/>
<g filter="url(#filter0_d)">
<path d="M63 106H34" stroke="white" stroke-width="10.5" stroke-linecap="square"/>
</g>
<path d="M71 139H27" stroke="white" stroke-width="11" stroke-linecap="square"/>
<path d="M68 176L72 180" stroke="white" stroke-width="2"/>
<defs>
<filter id="filter0_d" x="28.75" y="100.75" width="39.5" height="10.5" filterUnits="userSpaceOnUse" color-interpolation-filters="sRGB">
<feFlood flood-opacity="0" result="BackgroundImageFix"/>
<feColorMatrix in="SourceAlpha" type="matrix" values="0 0 0 0 0 0 0 0 0 0 0 0 0 0 0 0 0 0 127 0"/>
<feOffset/>
<feColorMatrix type="matrix" values="0 0 0 0 0 0 0 0 0 0 0 0 0 0 0 0 0 0 0.25 0"/>
<feBlend mode="normal" in2="BackgroundImageFix" result="effect1_dropShadow"/>
<feBlend mode="normal" in="SourceGraphic" in2="effect1_dropShadow" result="shape"/>
</filter>
</defs>
</svg>
